<?xml version="1.0" encoding="UTF-8" standalone="no"?>
<!-- Created with Inkscape (http://www.inkscape.org/) -->

<svg
   version="1.1"
   id="svg18"
   width="72.429337"
   height="72.427994"
   viewBox="0 0 72.429336 72.427995"
   xmlns="http://www.w3.org/2000/svg"
   xmlns:svg="http://www.w3.org/2000/svg">
  <defs
     id="defs22">
    <linearGradient
       x1="0"
       y1="0"
       x2="1"
       y2="0"
       gradientUnits="userSpaceOnUse"
       gradientTransform="matrix(60.06358,-42.564693,-42.564693,-60.06358,134.55313,604.98279)"
       spreadMethod="pad"
       id="linearGradient570">
      <stop
         style="stop-opacity:1;stop-color:#b0dff9"
         offset="0"
         id="stop566" />
      <stop
         style="stop-opacity:1;stop-color:#48b0e5"
         offset="1"
         id="stop568" />
    </linearGradient>
    <linearGradient
       x1="0"
       y1="0"
       x2="1"
       y2="0"
       gradientUnits="userSpaceOnUse"
       gradientTransform="matrix(60.063484,-42.564629,-42.564629,-60.063484,136.07568,607.13116)"
       spreadMethod="pad"
       id="linearGradient590">
      <stop
         style="stop-opacity:1;stop-color:#b0dff9"
         offset="0"
         id="stop586" />
      <stop
         style="stop-opacity:1;stop-color:#48b0e5"
         offset="1"
         id="stop588" />
    </linearGradient>
  </defs>
  <g
     id="g26"
     transform="matrix(1.3333333,0,0,-1.3333333,-188.89732,810.46665)">
    <g
       id="g1778">
      <g
         id="g554">
        <g
           id="g556">
          <g
             id="g562">
            <g
               id="g564">
              <path
                 d="m 141.673,580.689 c 0,-14.976 12.185,-27.16 27.161,-27.16 v 0 c 14.977,0 27.161,12.184 27.161,27.16 v 0 c 0,14.977 -12.184,27.161 -27.161,27.161 v 0 c -14.976,0 -27.161,-12.184 -27.161,-27.161 m 2.688,0 c 0,13.495 10.978,24.474 24.473,24.474 v 0 c 13.494,0 24.473,-10.979 24.473,-24.474 v 0 c 0,-11.508 -7.987,-21.181 -18.708,-23.781 v 0 c 0.01,0.79 0.02,1.719 0.027,2.41 v 0 c 0.006,0.643 0.199,1.258 0.559,1.779 v 0 c 0.548,0.795 1.31,1.772 1.853,2.451 v 0 c 0.046,0.057 0.069,0.123 0.096,0.187 v 0 c 0.564,0.032 1.136,0.081 1.718,0.155 v 0 c 1.045,0.132 1.89,0.949 2.053,1.988 v 0 c 0.271,1.709 0.713,4.737 0.764,6.534 v 0 l 1.08,0.176 c 0.214,0.034 0.403,0.156 0.523,0.334 v 0 c 0.121,0.179 0.163,0.4 0.117,0.609 v 0 l -1.23,5.534 0.025,0.173 2.298,0.701 c 0.273,0.084 0.479,0.309 0.537,0.588 v 0 l 0.559,2.632 c 0.007,0.027 0.005,0.055 0.009,0.083 v 0 c 0.003,0.023 0.007,0.043 0.007,0.066 v 0 c 0.043,0.282 0.047,0.564 -0.008,0.843 v 0 c -0.262,1.342 -0.907,4.614 -1.24,6.01 v 0 c -0.118,0.5 -0.343,0.954 -0.667,1.347 v 0 c -0.952,1.158 -3.343,4.025 -4.977,5.637 v 0 c -0.648,0.639 -1.454,1.087 -2.331,1.292 v 0 c -1.158,0.271 -3.12,0.706 -4.737,0.955 v 0 c -0.254,0.724 -0.937,1.247 -1.748,1.247 v 0 c -0.826,0 -1.519,-0.542 -1.762,-1.287 v 0 c -2.682,-0.459 -8.012,-1.859 -12.192,-6.004 v 0 c -0.094,0.016 -0.191,0.03 -0.29,0.03 v 0 c -1.027,0 -1.86,-0.833 -1.86,-1.861 v 0 c 0,-0.479 0.186,-0.912 0.483,-1.241 v 0 c -0.61,-1.713 -1.344,-4.402 -1.538,-7.774 v 0 c -0.83,-0.188 -1.451,-0.926 -1.451,-1.813 v 0 c 0,-0.933 0.689,-1.698 1.585,-1.832 v 0 c 0.229,-1.51 0.744,-3.997 1.888,-7.605 v 0 c -0.386,-0.342 -0.636,-0.835 -0.636,-1.391 v 0 c 0,-1.027 0.834,-1.86 1.861,-1.86 v 0 c 1.027,0 1.861,0.833 1.861,1.86 v 0 c 0,0.932 -0.688,1.697 -1.582,1.832 v 0 c -1.184,3.732 -1.674,6.228 -1.872,7.623 v 0 c 0.333,0.301 0.551,0.72 0.597,1.192 v 0 l 3.171,1.413 c 0.237,-0.206 0.524,-0.359 0.844,-0.424 v 0 c 0.61,-2.557 1.485,-6.228 1.982,-8.32 v 0 c -0.431,-0.341 -0.714,-0.863 -0.714,-1.455 v 0 c 0,-0.974 0.751,-1.763 1.703,-1.845 v 0 c 0.663,-2.445 0.93,-2.749 1.034,-2.867 v 0 c 0.281,-0.319 5.241,-3.175 12.167,-3.308 v 0 c -0.433,-0.559 -0.896,-1.171 -1.271,-1.716 v 0 c -0.538,-0.778 -0.827,-1.696 -0.836,-2.652 v 0 c -0.008,-0.794 -0.02,-1.906 -0.03,-2.752 v 0 c -1.365,-0.235 -2.764,-0.366 -4.194,-0.366 v 0 c -13.495,0 -24.473,10.978 -24.473,24.473 m 26.768,6.399 c 0.034,0.082 0.055,0.169 0.06,0.258 v 0 c 0.06,1.04 -0.257,6.868 -0.424,9.802 v 0 c 0.296,0.16 0.542,0.394 0.714,0.682 v 0 c 1.541,-0.241 3.419,-0.658 4.535,-0.919 v 0 c 0.596,-0.14 1.145,-0.445 1.588,-0.882 v 0 c 1.581,-1.561 3.93,-4.378 4.867,-5.517 v 0 c 0.171,-0.207 0.289,-0.447 0.352,-0.714 v 0 c 0.316,-1.33 0.93,-4.431 1.203,-5.827 v 0 l -2.253,-0.419 c -0.329,-0.061 -0.583,-0.325 -0.632,-0.656 v 0 l -0.551,-3.745 c -0.015,-0.095 -0.011,-0.191 0.01,-0.285 v 0 l 1.08,-4.864 -3.042,-0.498 c -0.428,-0.069 -0.718,-0.472 -0.648,-0.9 v 0 c 0.063,-0.384 0.396,-0.657 0.773,-0.657 v 0 c 0.042,0 0.084,0.003 0.127,0.01 v 0 l 1.201,0.196 c -0.089,-1.811 -0.53,-4.752 -0.732,-6.031 v 0 c -0.055,-0.353 -0.344,-0.632 -0.701,-0.676 v 0 c -7.339,-0.929 -13.515,1.992 -14.475,2.616 v 0 c -0.155,0.337 -0.476,1.388 -0.737,2.352 v 0 c 0.333,0.335 0.539,0.798 0.539,1.308 v 0 c 0,0.33 -0.093,0.635 -0.243,0.903 v 0 c 1.127,1.612 2.974,4.415 4.322,7.25 v 0 c 0.977,0.02 1.762,0.792 1.814,1.759 v 0 l 3.65,0.865 4.198,-0.496 c 0.43,-0.054 0.82,0.256 0.87,0.686 v 0 c 0.051,0.43 -0.256,0.82 -0.686,0.87 v 0 l -4.336,0.513 c -0.092,0.01 -0.183,0.005 -0.273,-0.016 v 0 l -3.827,-0.906 z m -13.687,4.877 c -0.041,0.168 -0.108,0.326 -0.191,0.472 v 0 c 3.808,3.649 8.586,4.927 11.061,5.357 v 0 c 0.061,-0.097 0.131,-0.187 0.208,-0.271 v 0 c -1.164,-2.703 -2.576,-5.4 -3.446,-6.996 v 0 c -0.044,0.003 -0.086,0.013 -0.13,0.013 v 0 c -0.453,0 -0.862,-0.168 -1.185,-0.436 v 0 c -2.149,0.889 -4.684,1.514 -6.317,1.861 m 8.965,-4.422 c 0.245,0.315 0.397,0.707 0.397,1.137 v 0 c 0,0.407 -0.135,0.78 -0.356,1.086 v 0 c 0.723,1.327 1.815,3.4 2.845,5.637 v 0 c 0.17,-3.086 0.356,-6.842 0.335,-7.838 v 0 l -1.558,-3.705 c -0.569,1.408 -1.188,2.724 -1.663,3.683 m -9.385,2.736 c 0.041,0.046 0.082,0.094 0.119,0.144 v 0 c 1.558,-0.334 3.948,-0.924 5.943,-1.738 v 0 c 0,-0.002 -0.001,-0.004 -0.001,-0.005 v 0 c 0,-0.246 0.05,-0.479 0.136,-0.693 v 0 c -0.851,-0.835 -2.047,-1.954 -3.135,-2.951 v 0 c -0.221,0.093 -0.465,0.145 -0.721,0.145 v 0 c -0.026,0 -0.05,-0.006 -0.077,-0.008 v 0 c -0.623,1.329 -1.507,3.341 -2.264,5.106 m -2.744,-8.131 c 0.151,3.156 0.804,5.691 1.373,7.348 v 0 c 0.65,-1.513 1.557,-3.593 2.244,-5.045 v 0 c -0.236,-0.306 -0.382,-0.685 -0.389,-1.101 v 0 l -3.045,-1.356 c -0.056,0.057 -0.12,0.105 -0.183,0.154 m 6.238,-0.278 c 0.428,0.341 0.708,0.86 0.708,1.451 v 0 c 0,0.192 -0.038,0.374 -0.092,0.549 v 0 c 0.962,0.882 2.27,2.095 3.235,3.05 v 0 c 0.183,-0.061 0.373,-0.101 0.577,-0.101 v 0 c 0.022,0 0.044,0.006 0.067,0.007 v 0 c 0.486,-0.985 1.128,-2.358 1.694,-3.784 v 0 c -0.334,-0.336 -0.541,-0.799 -0.541,-1.31 v 0 c 0,-0.469 0.18,-0.893 0.466,-1.219 v 0 c -1.273,-2.664 -3.045,-5.361 -4.14,-6.934 v 0 c -0.528,2.227 -1.45,6.095 -1.974,8.291 m 22.092,0.243 1.193,0.222 -0.219,-1.031 -1.145,-0.35 z"
                 style="fill:url(#linearGradient570);stroke:none"
                 id="path572" />
            </g>
          </g>
        </g>
      </g>
      <g
         id="g574">
        <g
           id="g576">
          <g
             id="g582">
            <g
               id="g584">
              <path
                 d="m 172.009,579.251 4.519,0.174 v 1.456 l -4.519,0.274 z"
                 style="fill:url(#linearGradient590);stroke:none"
                 id="path592" />
            </g>
          </g>
        </g>
      </g>
    </g>
  </g>
</svg>
